<mxfile host="app.diagrams.net" modified="2024-01-18T08:03:57.145Z" agent="Mozilla/5.0 (Macintosh; Intel Mac OS X 10_15_7) AppleWebKit/537.36 (KHTML, like Gecko) Chrome/120.0.0.0 Safari/537.36" etag="JY6g61ozqrQUtJJlBXY-" version="22.1.21" type="github">
  <diagram name="Page-1" id="2YBvvXClWsGukQMizWep">
    <mxGraphModel dx="1004" dy="638" grid="1" gridSize="10" guides="1" tooltips="1" connect="1" arrows="1" fold="1" page="1" pageScale="1" pageWidth="850" pageHeight="1100" math="0" shadow="0">
      <root>
        <mxCell id="0" />
        <mxCell id="1" parent="0" />
        <mxCell id="VSAg7D1v9ZxaxWrcPqsR-20" style="edgeStyle=orthogonalEdgeStyle;rounded=0;orthogonalLoop=1;jettySize=auto;html=1;exitX=0.5;exitY=1;exitDx=0;exitDy=0;entryX=0.5;entryY=0;entryDx=0;entryDy=0;" edge="1" parent="1" target="VSAg7D1v9ZxaxWrcPqsR-14">
          <mxGeometry relative="1" as="geometry">
            <mxPoint x="650" y="80" as="sourcePoint" />
          </mxGeometry>
        </mxCell>
        <mxCell id="VSAg7D1v9ZxaxWrcPqsR-5" value="" style="endArrow=classic;html=1;rounded=0;exitX=0.25;exitY=1;exitDx=0;exitDy=0;entryX=0.25;entryY=0;entryDx=0;entryDy=0;" edge="1" parent="1" target="VSAg7D1v9ZxaxWrcPqsR-7">
          <mxGeometry relative="1" as="geometry">
            <mxPoint x="120" y="80" as="sourcePoint" />
            <mxPoint x="126.96000000000004" y="201.98000000000002" as="targetPoint" />
          </mxGeometry>
        </mxCell>
        <mxCell id="VSAg7D1v9ZxaxWrcPqsR-6" value="Via&lt;br&gt;Recommendation" style="edgeLabel;resizable=0;html=1;align=center;verticalAlign=middle;" connectable="0" vertex="1" parent="VSAg7D1v9ZxaxWrcPqsR-5">
          <mxGeometry relative="1" as="geometry">
            <mxPoint y="10" as="offset" />
          </mxGeometry>
        </mxCell>
        <mxCell id="VSAg7D1v9ZxaxWrcPqsR-26" style="edgeStyle=orthogonalEdgeStyle;rounded=0;orthogonalLoop=1;jettySize=auto;html=1;entryX=0.25;entryY=0;entryDx=0;entryDy=0;" edge="1" parent="1" source="VSAg7D1v9ZxaxWrcPqsR-7" target="VSAg7D1v9ZxaxWrcPqsR-10">
          <mxGeometry relative="1" as="geometry">
            <mxPoint x="370" y="360" as="targetPoint" />
          </mxGeometry>
        </mxCell>
        <mxCell id="VSAg7D1v9ZxaxWrcPqsR-7" value="Finds item or service" style="rounded=0;whiteSpace=wrap;html=1;" vertex="1" parent="1">
          <mxGeometry x="90" y="250" width="120" height="60" as="geometry" />
        </mxCell>
        <mxCell id="VSAg7D1v9ZxaxWrcPqsR-8" value="" style="endArrow=classic;html=1;rounded=0;exitX=0.25;exitY=1;exitDx=0;exitDy=0;entryX=0.75;entryY=0;entryDx=0;entryDy=0;" edge="1" parent="1" target="VSAg7D1v9ZxaxWrcPqsR-7">
          <mxGeometry relative="1" as="geometry">
            <mxPoint x="180" y="80" as="sourcePoint" />
            <mxPoint x="180" y="240" as="targetPoint" />
          </mxGeometry>
        </mxCell>
        <mxCell id="VSAg7D1v9ZxaxWrcPqsR-9" value="Via&lt;br&gt;(Filtered) search" style="edgeLabel;resizable=0;html=1;align=center;verticalAlign=middle;" connectable="0" vertex="1" parent="VSAg7D1v9ZxaxWrcPqsR-8">
          <mxGeometry relative="1" as="geometry">
            <mxPoint y="-20" as="offset" />
          </mxGeometry>
        </mxCell>
        <mxCell id="VSAg7D1v9ZxaxWrcPqsR-56" style="edgeStyle=orthogonalEdgeStyle;rounded=0;orthogonalLoop=1;jettySize=auto;html=1;entryX=0.5;entryY=0;entryDx=0;entryDy=0;" edge="1" parent="1" source="VSAg7D1v9ZxaxWrcPqsR-10" target="VSAg7D1v9ZxaxWrcPqsR-52">
          <mxGeometry relative="1" as="geometry" />
        </mxCell>
        <mxCell id="VSAg7D1v9ZxaxWrcPqsR-57" style="edgeStyle=orthogonalEdgeStyle;rounded=0;orthogonalLoop=1;jettySize=auto;html=1;entryX=0.5;entryY=0;entryDx=0;entryDy=0;" edge="1" parent="1" source="VSAg7D1v9ZxaxWrcPqsR-10" target="VSAg7D1v9ZxaxWrcPqsR-53">
          <mxGeometry relative="1" as="geometry" />
        </mxCell>
        <mxCell id="VSAg7D1v9ZxaxWrcPqsR-10" value="(Where applicable) negotiate and agree on Deposit/Rental Rate/Period" style="whiteSpace=wrap;html=1;rounded=0;" vertex="1" parent="1">
          <mxGeometry x="330" y="330" width="120" height="60" as="geometry" />
        </mxCell>
        <mxCell id="VSAg7D1v9ZxaxWrcPqsR-23" style="edgeStyle=orthogonalEdgeStyle;rounded=0;orthogonalLoop=1;jettySize=auto;html=1;entryX=0.5;entryY=0;entryDx=0;entryDy=0;" edge="1" parent="1" source="VSAg7D1v9ZxaxWrcPqsR-14" target="VSAg7D1v9ZxaxWrcPqsR-22">
          <mxGeometry relative="1" as="geometry" />
        </mxCell>
        <mxCell id="VSAg7D1v9ZxaxWrcPqsR-14" value="Lists item with images/Deposit/Rental Rate/Period &lt;sup&gt;2&lt;/sup&gt;" style="rounded=0;whiteSpace=wrap;html=1;" vertex="1" parent="1">
          <mxGeometry x="590" y="140" width="120" height="60" as="geometry" />
        </mxCell>
        <mxCell id="VSAg7D1v9ZxaxWrcPqsR-22" value="Receives alert to interest in listed item" style="rounded=0;whiteSpace=wrap;html=1;" vertex="1" parent="1">
          <mxGeometry x="590" y="250" width="120" height="60" as="geometry" />
        </mxCell>
        <mxCell id="VSAg7D1v9ZxaxWrcPqsR-24" style="edgeStyle=orthogonalEdgeStyle;rounded=0;orthogonalLoop=1;jettySize=auto;html=1;entryX=0.75;entryY=0;entryDx=0;entryDy=0;" edge="1" parent="1" source="VSAg7D1v9ZxaxWrcPqsR-22" target="VSAg7D1v9ZxaxWrcPqsR-10">
          <mxGeometry relative="1" as="geometry" />
        </mxCell>
        <mxCell id="VSAg7D1v9ZxaxWrcPqsR-27" value="Renter &lt;br&gt;Experience" style="ellipse;whiteSpace=wrap;html=1;" vertex="1" parent="1">
          <mxGeometry x="90" y="20" width="120" height="80" as="geometry" />
        </mxCell>
        <mxCell id="VSAg7D1v9ZxaxWrcPqsR-28" value="Rentee&lt;br&gt;Experience" style="ellipse;whiteSpace=wrap;html=1;" vertex="1" parent="1">
          <mxGeometry x="590" y="20" width="120" height="80" as="geometry" />
        </mxCell>
        <mxCell id="VSAg7D1v9ZxaxWrcPqsR-43" style="edgeStyle=orthogonalEdgeStyle;rounded=0;orthogonalLoop=1;jettySize=auto;html=1;entryX=0.75;entryY=0;entryDx=0;entryDy=0;" edge="1" parent="1" source="VSAg7D1v9ZxaxWrcPqsR-29" target="VSAg7D1v9ZxaxWrcPqsR-33">
          <mxGeometry relative="1" as="geometry" />
        </mxCell>
        <mxCell id="VSAg7D1v9ZxaxWrcPqsR-29" value="Prepare item (to ship) for rent" style="rounded=0;whiteSpace=wrap;html=1;" vertex="1" parent="1">
          <mxGeometry x="590" y="500" width="120" height="60" as="geometry" />
        </mxCell>
        <mxCell id="VSAg7D1v9ZxaxWrcPqsR-35" style="edgeStyle=orthogonalEdgeStyle;rounded=0;orthogonalLoop=1;jettySize=auto;html=1;entryX=0.25;entryY=0;entryDx=0;entryDy=0;" edge="1" parent="1" source="VSAg7D1v9ZxaxWrcPqsR-30" target="VSAg7D1v9ZxaxWrcPqsR-33">
          <mxGeometry relative="1" as="geometry" />
        </mxCell>
        <mxCell id="VSAg7D1v9ZxaxWrcPqsR-30" value="Approves Deposit amount and Rental Rate &lt;sup&gt;1&lt;/sup&gt;" style="rounded=0;whiteSpace=wrap;html=1;" vertex="1" parent="1">
          <mxGeometry x="90" y="500" width="120" height="60" as="geometry" />
        </mxCell>
        <mxCell id="VSAg7D1v9ZxaxWrcPqsR-58" style="edgeStyle=orthogonalEdgeStyle;rounded=0;orthogonalLoop=1;jettySize=auto;html=1;entryX=0.5;entryY=0;entryDx=0;entryDy=0;" edge="1" parent="1" source="VSAg7D1v9ZxaxWrcPqsR-33" target="VSAg7D1v9ZxaxWrcPqsR-42">
          <mxGeometry relative="1" as="geometry" />
        </mxCell>
        <mxCell id="VSAg7D1v9ZxaxWrcPqsR-33" value="&lt;u style=&quot;font-weight: bold;&quot;&gt;RENT&lt;/u&gt;&lt;br&gt;Meet or ship item&amp;nbsp;" style="whiteSpace=wrap;html=1;rounded=0;" vertex="1" parent="1">
          <mxGeometry x="330" y="570" width="120" height="60" as="geometry" />
        </mxCell>
        <mxCell id="VSAg7D1v9ZxaxWrcPqsR-45" style="edgeStyle=orthogonalEdgeStyle;rounded=0;orthogonalLoop=1;jettySize=auto;html=1;entryX=0.5;entryY=0;entryDx=0;entryDy=0;" edge="1" parent="1" source="VSAg7D1v9ZxaxWrcPqsR-42" target="VSAg7D1v9ZxaxWrcPqsR-44">
          <mxGeometry relative="1" as="geometry" />
        </mxCell>
        <mxCell id="VSAg7D1v9ZxaxWrcPqsR-62" style="edgeStyle=orthogonalEdgeStyle;rounded=0;orthogonalLoop=1;jettySize=auto;html=1;" edge="1" parent="1" source="VSAg7D1v9ZxaxWrcPqsR-42">
          <mxGeometry relative="1" as="geometry">
            <mxPoint x="650" y="800" as="targetPoint" />
          </mxGeometry>
        </mxCell>
        <mxCell id="VSAg7D1v9ZxaxWrcPqsR-65" style="edgeStyle=orthogonalEdgeStyle;rounded=0;orthogonalLoop=1;jettySize=auto;html=1;" edge="1" parent="1" source="VSAg7D1v9ZxaxWrcPqsR-42">
          <mxGeometry relative="1" as="geometry">
            <mxPoint x="150" y="800" as="targetPoint" />
          </mxGeometry>
        </mxCell>
        <mxCell id="VSAg7D1v9ZxaxWrcPqsR-42" value="&lt;b&gt;&lt;u&gt;RETURN&lt;/u&gt;&lt;/b&gt;&lt;br&gt;Meet or ship item" style="rounded=0;whiteSpace=wrap;html=1;" vertex="1" parent="1">
          <mxGeometry x="330" y="670" width="120" height="60" as="geometry" />
        </mxCell>
        <mxCell id="VSAg7D1v9ZxaxWrcPqsR-47" style="edgeStyle=orthogonalEdgeStyle;rounded=0;orthogonalLoop=1;jettySize=auto;html=1;entryX=0.5;entryY=0;entryDx=0;entryDy=0;" edge="1" parent="1" source="VSAg7D1v9ZxaxWrcPqsR-44" target="VSAg7D1v9ZxaxWrcPqsR-46">
          <mxGeometry relative="1" as="geometry" />
        </mxCell>
        <mxCell id="VSAg7D1v9ZxaxWrcPqsR-64" style="edgeStyle=orthogonalEdgeStyle;rounded=0;orthogonalLoop=1;jettySize=auto;html=1;entryX=0.5;entryY=0;entryDx=0;entryDy=0;" edge="1" parent="1" source="VSAg7D1v9ZxaxWrcPqsR-44" target="VSAg7D1v9ZxaxWrcPqsR-48">
          <mxGeometry relative="1" as="geometry" />
        </mxCell>
        <mxCell id="VSAg7D1v9ZxaxWrcPqsR-44" value="Dispute Handling&amp;nbsp;&lt;br&gt;(if any)" style="shape=hexagon;perimeter=hexagonPerimeter2;whiteSpace=wrap;html=1;fixedSize=1;" vertex="1" parent="1">
          <mxGeometry x="330" y="760" width="120" height="80" as="geometry" />
        </mxCell>
        <mxCell id="VSAg7D1v9ZxaxWrcPqsR-60" value="" style="edgeStyle=orthogonalEdgeStyle;rounded=0;orthogonalLoop=1;jettySize=auto;html=1;" edge="1" parent="1" source="VSAg7D1v9ZxaxWrcPqsR-46">
          <mxGeometry relative="1" as="geometry">
            <mxPoint x="650" y="950" as="targetPoint" />
          </mxGeometry>
        </mxCell>
        <mxCell id="VSAg7D1v9ZxaxWrcPqsR-46" value="Approve to release (full) Deposit" style="rounded=0;whiteSpace=wrap;html=1;" vertex="1" parent="1">
          <mxGeometry x="590" y="840" width="120" height="60" as="geometry" />
        </mxCell>
        <mxCell id="VSAg7D1v9ZxaxWrcPqsR-66" style="edgeStyle=orthogonalEdgeStyle;rounded=0;orthogonalLoop=1;jettySize=auto;html=1;entryX=0.5;entryY=0;entryDx=0;entryDy=0;" edge="1" parent="1" source="VSAg7D1v9ZxaxWrcPqsR-48" target="VSAg7D1v9ZxaxWrcPqsR-63">
          <mxGeometry relative="1" as="geometry" />
        </mxCell>
        <mxCell id="VSAg7D1v9ZxaxWrcPqsR-48" value="Approve to release rental payment" style="rounded=0;whiteSpace=wrap;html=1;" vertex="1" parent="1">
          <mxGeometry x="90" y="840" width="120" height="60" as="geometry" />
        </mxCell>
        <mxCell id="VSAg7D1v9ZxaxWrcPqsR-55" style="edgeStyle=orthogonalEdgeStyle;rounded=0;orthogonalLoop=1;jettySize=auto;html=1;entryX=0.5;entryY=0;entryDx=0;entryDy=0;" edge="1" parent="1" source="VSAg7D1v9ZxaxWrcPqsR-52" target="VSAg7D1v9ZxaxWrcPqsR-29">
          <mxGeometry relative="1" as="geometry" />
        </mxCell>
        <mxCell id="VSAg7D1v9ZxaxWrcPqsR-52" value="Approve T&amp;amp;Cs to proceed" style="rounded=0;whiteSpace=wrap;html=1;" vertex="1" parent="1">
          <mxGeometry x="590" y="400" width="120" height="60" as="geometry" />
        </mxCell>
        <mxCell id="VSAg7D1v9ZxaxWrcPqsR-54" style="edgeStyle=orthogonalEdgeStyle;rounded=0;orthogonalLoop=1;jettySize=auto;html=1;entryX=0.5;entryY=0;entryDx=0;entryDy=0;" edge="1" parent="1" source="VSAg7D1v9ZxaxWrcPqsR-53" target="VSAg7D1v9ZxaxWrcPqsR-30">
          <mxGeometry relative="1" as="geometry" />
        </mxCell>
        <mxCell id="VSAg7D1v9ZxaxWrcPqsR-53" value="Approve T&amp;amp;Cs to proceed" style="rounded=0;whiteSpace=wrap;html=1;" vertex="1" parent="1">
          <mxGeometry x="90" y="400" width="120" height="60" as="geometry" />
        </mxCell>
        <mxCell id="VSAg7D1v9ZxaxWrcPqsR-61" value="Receive rental payment (and item)" style="ellipse;whiteSpace=wrap;html=1;" vertex="1" parent="1">
          <mxGeometry x="590" y="950" width="120" height="80" as="geometry" />
        </mxCell>
        <mxCell id="VSAg7D1v9ZxaxWrcPqsR-63" value="Receive Deposit less rental payment &lt;sup&gt;1&lt;/sup&gt;" style="ellipse;whiteSpace=wrap;html=1;" vertex="1" parent="1">
          <mxGeometry x="90" y="950" width="120" height="80" as="geometry" />
        </mxCell>
        <mxCell id="VSAg7D1v9ZxaxWrcPqsR-67" value="Rental payment to be direct between users or through intermediary TBC &lt;sup&gt;1&lt;/sup&gt;" style="text;html=1;strokeColor=none;fillColor=none;align=left;verticalAlign=middle;whiteSpace=wrap;rounded=0;" vertex="1" parent="1">
          <mxGeometry x="280" y="990" width="240" height="40" as="geometry" />
        </mxCell>
        <mxCell id="VSAg7D1v9ZxaxWrcPqsR-68" value="Deposit / Rental Rate / Period of loan are negotiable (fields in the Application) &lt;sup&gt;2&lt;/sup&gt;" style="text;html=1;strokeColor=none;fillColor=none;align=left;verticalAlign=middle;whiteSpace=wrap;rounded=0;" vertex="1" parent="1">
          <mxGeometry x="280" y="1040" width="240" height="40" as="geometry" />
        </mxCell>
      </root>
    </mxGraphModel>
  </diagram>
</mxfile>
